<svg xmlns="http://www.w3.org/2000/svg" width="862" height="137" fill="none"><path fill="#000" d="M245.361 137c23.173 0 38.884-11.119 49.882-26.209l-13.944-7.743c-7.462 11.317-21.013 19.259-35.938 19.259-28.673 0-50.472-22.436-50.472-53.807 0-31.57 21.799-53.807 50.472-53.807 14.925 0 28.476 8.14 35.938 19.26l13.747-7.744C284.638 11.317 268.534 0 245.361 0 207.654 0 178 27.797 178 68.5s29.654 68.5 67.361 68.5m179.848-2.383V2.184h-16.3v56.984h-76.591V2.184h-16.3v132.433h16.3V73.86h76.591v60.757zm142.755 0L515.136 2.184h-20.228l-52.631 132.433h18.656l11.587-29.385h65.201l11.586 29.385zm-35.153-44.078h-55.578l27.887-71.28zm68.489 44.078V82.001h36.331c25.923 0 41.045-18.267 41.045-39.909S663.947 2.184 637.631 2.184H585v132.433zm34.367-67.309H601.3V16.876h34.367c15.515 0 26.12 10.325 26.12 25.216s-10.605 25.216-26.12 25.216M16.3 134.617V2.184H0v132.433zm139.091 0V2.184h-16.3v103.445L63.679 2.184H46.986v132.433h16.3V28.987l76.394 105.63zm559.909 0V2.184H699v132.433zm139.091 0V2.184h-16.3v103.445L762.679 2.184h-16.693v132.433h16.3V28.987l76.394 105.63z"/></svg>